<svg width="1440" height="6766" viewBox="0 0 1440 6766" fill="none" xmlns="http://www.w3.org/2000/svg">
<g opacity="0.12">
<rect x="167" width="1" height="7001" fill="#989FC5"/>
<rect x="388" width="1" height="7001" fill="#989FC5"/>
<rect x="609" width="1" height="7001" fill="#989FC5"/>
<rect x="830" width="1" height="7001" fill="#989FC5"/>
<rect x="1051" width="1" height="7001" fill="#989FC5"/>
<rect x="1272" width="1" height="7001" fill="#989FC5"/>
</g>
<g opacity="0.06">
<rect y="1" width="1" height="1440" transform="rotate(-90 0 1)" fill="#989FC5"/>
<rect y="222" width="1" height="1440" transform="rotate(-90 0 222)" fill="#989FC5"/>
<rect y="443" width="1" height="1440" transform="rotate(-90 0 443)" fill="#989FC5"/>
<rect y="664" width="1" height="1440" transform="rotate(-90 0 664)" fill="#989FC5"/>
<rect y="885" width="1" height="1440" transform="rotate(-90 0 885)" fill="#989FC5"/>
<rect y="1106" width="1" height="1440" transform="rotate(-90 0 1106)" fill="#989FC5"/>
<rect y="1327" width="1" height="1440" transform="rotate(-90 0 1327)" fill="#989FC5"/>
<rect y="1548" width="1" height="1440" transform="rotate(-90 0 1548)" fill="#989FC5"/>
<rect y="1769" width="1" height="1440" transform="rotate(-90 0 1769)" fill="#989FC5"/>
<rect y="1990" width="1" height="1440" transform="rotate(-90 0 1990)" fill="#989FC5"/>
<rect y="2211" width="1" height="1440" transform="rotate(-90 0 2211)" fill="#989FC5"/>
<rect y="2432" width="1" height="1440" transform="rotate(-90 0 2432)" fill="#989FC5"/>
<rect y="2653" width="1" height="1440" transform="rotate(-90 0 2653)" fill="#989FC5"/>
<rect y="2874" width="1" height="1440" transform="rotate(-90 0 2874)" fill="#989FC5"/>
<rect y="3095" width="1" height="1440" transform="rotate(-90 0 3095)" fill="#989FC5"/>
<rect y="3316" width="1" height="1440" transform="rotate(-90 0 3316)" fill="#989FC5"/>
<rect y="3537" width="1" height="1440" transform="rotate(-90 0 3537)" fill="#989FC5"/>
<rect y="3758" width="1" height="1440" transform="rotate(-90 0 3758)" fill="#989FC5"/>
<rect y="3979" width="1" height="1440" transform="rotate(-90 0 3979)" fill="#989FC5"/>
<rect y="4200" width="1" height="1440" transform="rotate(-90 0 4200)" fill="#989FC5"/>
<rect y="4421" width="1" height="1440" transform="rotate(-90 0 4421)" fill="#989FC5"/>
<rect y="4642" width="1" height="1440" transform="rotate(-90 0 4642)" fill="#989FC5"/>
<rect y="4863" width="1" height="1440" transform="rotate(-90 0 4863)" fill="#989FC5"/>
<rect y="5084" width="1" height="1440" transform="rotate(-90 0 5084)" fill="#989FC5"/>
<rect y="5305" width="1" height="1440" transform="rotate(-90 0 5305)" fill="#989FC5"/>
<rect y="5526" width="1" height="1440" transform="rotate(-90 0 5526)" fill="#989FC5"/>
<rect y="5747" width="1" height="1440" transform="rotate(-90 0 5747)" fill="#989FC5"/>
<rect y="5968" width="1" height="1440" transform="rotate(-90 0 5968)" fill="#989FC5"/>
<rect y="6189" width="1" height="1440" transform="rotate(-90 0 6189)" fill="#989FC5"/>
<rect y="6410" width="1" height="1440" transform="rotate(-90 0 6410)" fill="#989FC5"/>
<rect y="6631" width="1" height="1440" transform="rotate(-90 0 6631)" fill="#989FC5"/>
</g>
</svg>
